<svg width="14" height="15" viewBox="0 0 14 15" fill="none" xmlns="http://www.w3.org/2000/svg">
<path fill-rule="evenodd" clip-rule="evenodd" d="M10.1374 3.4455L7 2.3169L3.86257 3.4455L7 4.65653L10.1374 3.4455ZM6 6.41433L2 4.8704V10.5857L6 12.1296V6.41433ZM6.54867 0.353783C6.8404 0.24884 7.1596 0.24884 7.45133 0.353783L13.3385 2.47153C13.7354 2.61429 14 2.99073 14 3.4125V11.0429C14 11.594 13.6609 12.0884 13.1468 12.2868L7.3601 14.5204C7.12837 14.6099 6.87163 14.6099 6.6399 14.5204L0.853207 12.2868C0.339063 12.0884 0 11.594 0 11.0429V3.4125C0 2.99073 0.264633 2.61429 0.661513 2.47153L6.54867 0.353783Z" fill="white"/>
</svg>
